<mxfile host="app.diagrams.net" agent="Mozilla/5.0 (Macintosh; Intel Mac OS X 10_15_7) AppleWebKit/605.1.15 (KHTML, like Gecko) Version/18.0 Safari/605.1.15" version="26.2.12">
  <diagram name="第 1 页" id="Pd9yauOKo4RyPXVzTmN3">
    <mxGraphModel dx="974" dy="828" grid="1" gridSize="10" guides="1" tooltips="1" connect="1" arrows="1" fold="1" page="1" pageScale="1" pageWidth="1169" pageHeight="827" math="0" shadow="0">
      <root>
        <mxCell id="0" />
        <mxCell id="1" parent="0" />
        <mxCell id="yebHsUK6jYcy_L9dXZWg-1" value="&lt;div&gt;&lt;br&gt;&lt;/div&gt;Activity review sequence diagram" style="shape=umlFrame;whiteSpace=wrap;html=1;pointerEvents=0;recursiveResize=0;container=1;collapsible=0;width=206;height=30;swimlaneFillColor=default;" vertex="1" parent="1">
          <mxGeometry x="24" y="20" width="696" height="960" as="geometry" />
        </mxCell>
        <mxCell id="yebHsUK6jYcy_L9dXZWg-2" value="Auditor" style="shape=umlLifeline;perimeter=lifelinePerimeter;whiteSpace=wrap;html=1;container=1;dropTarget=0;collapsible=0;recursiveResize=0;outlineConnect=0;portConstraint=eastwest;newEdgeStyle={&quot;edgeStyle&quot;:&quot;elbowEdgeStyle&quot;,&quot;elbow&quot;:&quot;vertical&quot;,&quot;curved&quot;:0,&quot;rounded&quot;:0};" vertex="1" parent="yebHsUK6jYcy_L9dXZWg-1">
          <mxGeometry x="46" y="60" width="100" height="860" as="geometry" />
        </mxCell>
        <mxCell id="yebHsUK6jYcy_L9dXZWg-3" value="" style="html=1;points=[[0,0,0,0,5],[0,1,0,0,-5],[1,0,0,0,5],[1,1,0,0,-5]];perimeter=orthogonalPerimeter;outlineConnect=0;targetShapes=umlLifeline;portConstraint=eastwest;newEdgeStyle={&quot;curved&quot;:0,&quot;rounded&quot;:0};" vertex="1" parent="yebHsUK6jYcy_L9dXZWg-2">
          <mxGeometry x="45" y="80" width="10" height="210" as="geometry" />
        </mxCell>
        <mxCell id="yebHsUK6jYcy_L9dXZWg-4" value="Activity" style="shape=umlLifeline;perimeter=lifelinePerimeter;whiteSpace=wrap;html=1;container=1;dropTarget=0;collapsible=0;recursiveResize=0;outlineConnect=0;portConstraint=eastwest;newEdgeStyle={&quot;edgeStyle&quot;:&quot;elbowEdgeStyle&quot;,&quot;elbow&quot;:&quot;vertical&quot;,&quot;curved&quot;:0,&quot;rounded&quot;:0};" vertex="1" parent="yebHsUK6jYcy_L9dXZWg-1">
          <mxGeometry x="176" y="60" width="100" height="850" as="geometry" />
        </mxCell>
        <mxCell id="yebHsUK6jYcy_L9dXZWg-5" value="" style="html=1;points=[[0,0,0,0,5],[0,1,0,0,-5],[1,0,0,0,5],[1,1,0,0,-5]];perimeter=orthogonalPerimeter;outlineConnect=0;targetShapes=umlLifeline;portConstraint=eastwest;newEdgeStyle={&quot;curved&quot;:0,&quot;rounded&quot;:0};" vertex="1" parent="yebHsUK6jYcy_L9dXZWg-4">
          <mxGeometry x="45" y="70" width="10" height="170" as="geometry" />
        </mxCell>
        <mxCell id="yebHsUK6jYcy_L9dXZWg-6" value="" style="html=1;points=[[0,0,0,0,5],[0,1,0,0,-5],[1,0,0,0,5],[1,1,0,0,-5]];perimeter=orthogonalPerimeter;outlineConnect=0;targetShapes=umlLifeline;portConstraint=eastwest;newEdgeStyle={&quot;curved&quot;:0,&quot;rounded&quot;:0};" vertex="1" parent="yebHsUK6jYcy_L9dXZWg-4">
          <mxGeometry x="45" y="350" width="10" height="130" as="geometry" />
        </mxCell>
        <mxCell id="yebHsUK6jYcy_L9dXZWg-7" value="" style="html=1;points=[[0,0,0,0,5],[0,1,0,0,-5],[1,0,0,0,5],[1,1,0,0,-5]];perimeter=orthogonalPerimeter;outlineConnect=0;targetShapes=umlLifeline;portConstraint=eastwest;newEdgeStyle={&quot;curved&quot;:0,&quot;rounded&quot;:0};" vertex="1" parent="yebHsUK6jYcy_L9dXZWg-4">
          <mxGeometry x="45" y="530" width="10" height="110" as="geometry" />
        </mxCell>
        <mxCell id="yebHsUK6jYcy_L9dXZWg-8" value="&lt;br&gt;&lt;span style=&quot;caret-color: rgba(0, 0, 0, 0); color: rgba(0, 0, 0, 0); font-family: monospace; font-size: 0px; text-align: start;&quot;&gt;3CmxGraphModel%3E%3Croot%3E%3CmxCell%20id%3D%220%22%2F%3E%3CmxCell%20id%3D%221%22%20parent%3D%220%22%2F%3E%3CmxCell%20id%3D%222%22%20value%3D%22%22%20style%3D%22html%3D1%3Bpoints%3D%5B%5B0%2C0%2C0%2C0%2C5%5D%2C%5B0%2C1%2C0%2C0%2C-5%5D%2C%5B1%2C0%2C0%2C0%2C5%5D%2C%5B1%2C1%2C0%2C0%2C-5%5D%5D%3Bperimeter%3DorthogonalPerimeter%3BoutlineConnect%3D0%3BtargetShapes%3DumlLifeline%3BportConstraint%3Deastwest%3BnewEdgeStyle%3D%7B%26quot%3Bcurved%26quot%3B%3A0%2C%26quot%3Brounded%26quot%3B%3A0%7D%3B%22%20vertex%3D%221%22%20parent%3D%221%22%3E%3CmxGeometry%20x%3D%22635%22%20y%3D%22690%22%20width%3D%2210%22%20height%3D%2236.5%22%20as%3D%22geometry%22%2F%3E%3C%2FmxCell%3E%3C%2Froot%3E%3C%2FmxGraphModel%3&lt;/span&gt;" style="html=1;points=[[0,0,0,0,5],[0,1,0,0,-5],[1,0,0,0,5],[1,1,0,0,-5]];perimeter=orthogonalPerimeter;outlineConnect=0;targetShapes=umlLifeline;portConstraint=eastwest;newEdgeStyle={&quot;curved&quot;:0,&quot;rounded&quot;:0};" vertex="1" parent="yebHsUK6jYcy_L9dXZWg-4">
          <mxGeometry x="45" y="680" width="10" height="60" as="geometry" />
        </mxCell>
        <mxCell id="yebHsUK6jYcy_L9dXZWg-9" value="Organize" style="shape=umlLifeline;perimeter=lifelinePerimeter;whiteSpace=wrap;html=1;container=1;dropTarget=0;collapsible=0;recursiveResize=0;outlineConnect=0;portConstraint=eastwest;newEdgeStyle={&quot;edgeStyle&quot;:&quot;elbowEdgeStyle&quot;,&quot;elbow&quot;:&quot;vertical&quot;,&quot;curved&quot;:0,&quot;rounded&quot;:0};" vertex="1" parent="yebHsUK6jYcy_L9dXZWg-1">
          <mxGeometry x="566" y="60" width="100" height="840" as="geometry" />
        </mxCell>
        <mxCell id="yebHsUK6jYcy_L9dXZWg-10" value="" style="html=1;points=[[0,0,0,0,5],[0,1,0,0,-5],[1,0,0,0,5],[1,1,0,0,-5]];perimeter=orthogonalPerimeter;outlineConnect=0;targetShapes=umlLifeline;portConstraint=eastwest;newEdgeStyle={&quot;curved&quot;:0,&quot;rounded&quot;:0};" vertex="1" parent="yebHsUK6jYcy_L9dXZWg-9">
          <mxGeometry x="45" y="110" width="10" height="70" as="geometry" />
        </mxCell>
        <mxCell id="yebHsUK6jYcy_L9dXZWg-11" value="Review" style="shape=umlLifeline;perimeter=lifelinePerimeter;whiteSpace=wrap;html=1;container=1;dropTarget=0;collapsible=0;recursiveResize=0;outlineConnect=0;portConstraint=eastwest;newEdgeStyle={&quot;edgeStyle&quot;:&quot;elbowEdgeStyle&quot;,&quot;elbow&quot;:&quot;vertical&quot;,&quot;curved&quot;:0,&quot;rounded&quot;:0};" vertex="1" parent="yebHsUK6jYcy_L9dXZWg-1">
          <mxGeometry x="306" y="60" width="100" height="850" as="geometry" />
        </mxCell>
        <mxCell id="yebHsUK6jYcy_L9dXZWg-12" value="" style="html=1;points=[[0,0,0,0,5],[0,1,0,0,-5],[1,0,0,0,5],[1,1,0,0,-5]];perimeter=orthogonalPerimeter;outlineConnect=0;targetShapes=umlLifeline;portConstraint=eastwest;newEdgeStyle={&quot;curved&quot;:0,&quot;rounded&quot;:0};" vertex="1" parent="yebHsUK6jYcy_L9dXZWg-11">
          <mxGeometry x="45" y="260" width="10" height="130" as="geometry" />
        </mxCell>
        <mxCell id="yebHsUK6jYcy_L9dXZWg-13" value="Database" style="shape=umlLifeline;perimeter=lifelinePerimeter;whiteSpace=wrap;html=1;container=1;dropTarget=0;collapsible=0;recursiveResize=0;outlineConnect=0;portConstraint=eastwest;newEdgeStyle={&quot;edgeStyle&quot;:&quot;elbowEdgeStyle&quot;,&quot;elbow&quot;:&quot;vertical&quot;,&quot;curved&quot;:0,&quot;rounded&quot;:0};" vertex="1" parent="yebHsUK6jYcy_L9dXZWg-1">
          <mxGeometry x="436" y="60" width="100" height="860" as="geometry" />
        </mxCell>
        <mxCell id="yebHsUK6jYcy_L9dXZWg-14" value="" style="html=1;points=[[0,0,0,0,5],[0,1,0,0,-5],[1,0,0,0,5],[1,1,0,0,-5]];perimeter=orthogonalPerimeter;outlineConnect=0;targetShapes=umlLifeline;portConstraint=eastwest;newEdgeStyle={&quot;curved&quot;:0,&quot;rounded&quot;:0};" vertex="1" parent="yebHsUK6jYcy_L9dXZWg-13">
          <mxGeometry x="45" y="110" width="10" height="70" as="geometry" />
        </mxCell>
        <mxCell id="yebHsUK6jYcy_L9dXZWg-15" value="" style="html=1;points=[[0,0,0,0,5],[0,1,0,0,-5],[1,0,0,0,5],[1,1,0,0,-5]];perimeter=orthogonalPerimeter;outlineConnect=0;targetShapes=umlLifeline;portConstraint=eastwest;newEdgeStyle={&quot;curved&quot;:0,&quot;rounded&quot;:0};" vertex="1" parent="yebHsUK6jYcy_L9dXZWg-13">
          <mxGeometry x="45" y="280" width="10" height="70" as="geometry" />
        </mxCell>
        <mxCell id="yebHsUK6jYcy_L9dXZWg-16" value="" style="html=1;points=[[0,0,0,0,5],[0,1,0,0,-5],[1,0,0,0,5],[1,1,0,0,-5]];perimeter=orthogonalPerimeter;outlineConnect=0;targetShapes=umlLifeline;portConstraint=eastwest;newEdgeStyle={&quot;curved&quot;:0,&quot;rounded&quot;:0};" vertex="1" parent="yebHsUK6jYcy_L9dXZWg-13">
          <mxGeometry x="45" y="400" width="10" height="70" as="geometry" />
        </mxCell>
        <mxCell id="yebHsUK6jYcy_L9dXZWg-17" value="" style="html=1;points=[[0,0,0,0,5],[0,1,0,0,-5],[1,0,0,0,5],[1,1,0,0,-5]];perimeter=orthogonalPerimeter;outlineConnect=0;targetShapes=umlLifeline;portConstraint=eastwest;newEdgeStyle={&quot;curved&quot;:0,&quot;rounded&quot;:0};" vertex="1" parent="yebHsUK6jYcy_L9dXZWg-13">
          <mxGeometry x="45" y="530" width="10" height="70" as="geometry" />
        </mxCell>
        <mxCell id="yebHsUK6jYcy_L9dXZWg-18" value="" style="endArrow=classic;html=1;rounded=0;fontSize=12;startSize=8;endSize=8;curved=1;" edge="1" parent="yebHsUK6jYcy_L9dXZWg-1" source="yebHsUK6jYcy_L9dXZWg-3">
          <mxGeometry width="50" height="50" relative="1" as="geometry">
            <mxPoint x="106" y="150" as="sourcePoint" />
            <mxPoint x="221" y="150" as="targetPoint" />
            <Array as="points" />
          </mxGeometry>
        </mxCell>
        <mxCell id="yebHsUK6jYcy_L9dXZWg-19" value="&lt;font style=&quot;font-size: 9px;&quot;&gt;获取待审核活动列表&lt;/font&gt;" style="text;html=1;align=center;verticalAlign=middle;whiteSpace=wrap;rounded=0;" vertex="1" parent="yebHsUK6jYcy_L9dXZWg-1">
          <mxGeometry x="116" y="120" width="84" height="30" as="geometry" />
        </mxCell>
        <mxCell id="yebHsUK6jYcy_L9dXZWg-20" value="" style="endArrow=classic;html=1;rounded=0;fontSize=12;startSize=8;endSize=8;curved=1;" edge="1" parent="yebHsUK6jYcy_L9dXZWg-1">
          <mxGeometry width="50" height="50" relative="1" as="geometry">
            <mxPoint x="231" y="180" as="sourcePoint" />
            <mxPoint x="481" y="180" as="targetPoint" />
          </mxGeometry>
        </mxCell>
        <mxCell id="yebHsUK6jYcy_L9dXZWg-21" value="&lt;span style=&quot;font-size: 9px;&quot;&gt;查询待审核活动&lt;/span&gt;" style="text;html=1;align=center;verticalAlign=middle;whiteSpace=wrap;rounded=0;" vertex="1" parent="yebHsUK6jYcy_L9dXZWg-1">
          <mxGeometry x="306" y="150" width="84" height="30" as="geometry" />
        </mxCell>
        <mxCell id="yebHsUK6jYcy_L9dXZWg-22" value="" style="endArrow=classic;html=1;rounded=0;fontSize=12;startSize=8;endSize=8;curved=1;" edge="1" parent="yebHsUK6jYcy_L9dXZWg-1" source="yebHsUK6jYcy_L9dXZWg-14">
          <mxGeometry width="50" height="50" relative="1" as="geometry">
            <mxPoint x="476" y="230" as="sourcePoint" />
            <mxPoint x="228.75" y="230" as="targetPoint" />
          </mxGeometry>
        </mxCell>
        <mxCell id="yebHsUK6jYcy_L9dXZWg-23" value="&lt;span style=&quot;font-size: 9px;&quot;&gt;返回待审核活动列表&lt;/span&gt;" style="text;html=1;align=center;verticalAlign=middle;whiteSpace=wrap;rounded=0;" vertex="1" parent="yebHsUK6jYcy_L9dXZWg-1">
          <mxGeometry x="306" y="200" width="84" height="30" as="geometry" />
        </mxCell>
        <mxCell id="yebHsUK6jYcy_L9dXZWg-24" value="" style="endArrow=classic;html=1;rounded=0;fontSize=12;startSize=8;endSize=8;curved=1;" edge="1" parent="yebHsUK6jYcy_L9dXZWg-1">
          <mxGeometry width="50" height="50" relative="1" as="geometry">
            <mxPoint x="221" y="250" as="sourcePoint" />
            <mxPoint x="101" y="250" as="targetPoint" />
          </mxGeometry>
        </mxCell>
        <mxCell id="yebHsUK6jYcy_L9dXZWg-25" value="&lt;span style=&quot;font-size: 9px;&quot;&gt;展示待审核活动列表&lt;/span&gt;" style="text;html=1;align=center;verticalAlign=middle;whiteSpace=wrap;rounded=0;" vertex="1" parent="yebHsUK6jYcy_L9dXZWg-1">
          <mxGeometry x="119" y="222" width="84" height="30" as="geometry" />
        </mxCell>
        <mxCell id="yebHsUK6jYcy_L9dXZWg-26" value="" style="endArrow=classic;html=1;rounded=0;fontSize=12;startSize=8;endSize=8;curved=1;" edge="1" parent="yebHsUK6jYcy_L9dXZWg-1" source="yebHsUK6jYcy_L9dXZWg-3" target="yebHsUK6jYcy_L9dXZWg-5">
          <mxGeometry width="50" height="50" relative="1" as="geometry">
            <mxPoint x="106" y="280" as="sourcePoint" />
            <mxPoint x="216" y="280" as="targetPoint" />
            <Array as="points">
              <mxPoint x="156" y="280" />
            </Array>
          </mxGeometry>
        </mxCell>
        <mxCell id="yebHsUK6jYcy_L9dXZWg-27" value="&lt;span style=&quot;font-size: 9px;&quot;&gt;选择活动进行审核&lt;/span&gt;" style="text;html=1;align=center;verticalAlign=middle;whiteSpace=wrap;rounded=0;" vertex="1" parent="yebHsUK6jYcy_L9dXZWg-1">
          <mxGeometry x="116" y="250" width="84" height="30" as="geometry" />
        </mxCell>
        <mxCell id="yebHsUK6jYcy_L9dXZWg-28" value="" style="endArrow=classic;html=1;rounded=0;fontSize=12;startSize=8;endSize=8;curved=1;" edge="1" parent="yebHsUK6jYcy_L9dXZWg-1" target="yebHsUK6jYcy_L9dXZWg-12">
          <mxGeometry width="50" height="50" relative="1" as="geometry">
            <mxPoint x="95.78142857142866" y="335" as="sourcePoint" />
            <mxPoint x="356.21" y="335" as="targetPoint" />
          </mxGeometry>
        </mxCell>
        <mxCell id="yebHsUK6jYcy_L9dXZWg-29" value="&lt;span style=&quot;font-size: 9px;&quot;&gt;创建审核记录&lt;/span&gt;" style="text;html=1;align=center;verticalAlign=middle;whiteSpace=wrap;rounded=0;" vertex="1" parent="yebHsUK6jYcy_L9dXZWg-1">
          <mxGeometry x="184" y="310" width="84" height="30" as="geometry" />
        </mxCell>
        <mxCell id="yebHsUK6jYcy_L9dXZWg-30" value="" style="endArrow=classic;html=1;rounded=0;fontSize=12;startSize=8;endSize=8;curved=1;" edge="1" parent="yebHsUK6jYcy_L9dXZWg-1" source="yebHsUK6jYcy_L9dXZWg-12">
          <mxGeometry width="50" height="50" relative="1" as="geometry">
            <mxPoint x="366" y="360" as="sourcePoint" />
            <mxPoint x="481" y="360" as="targetPoint" />
          </mxGeometry>
        </mxCell>
        <mxCell id="yebHsUK6jYcy_L9dXZWg-31" value="&lt;span style=&quot;font-size: 9px;&quot;&gt;保存审核记录&lt;/span&gt;" style="text;html=1;align=center;verticalAlign=middle;whiteSpace=wrap;rounded=0;" vertex="1" parent="yebHsUK6jYcy_L9dXZWg-1">
          <mxGeometry x="376" y="330" width="84" height="30" as="geometry" />
        </mxCell>
        <mxCell id="yebHsUK6jYcy_L9dXZWg-32" value="" style="endArrow=classic;html=1;rounded=0;fontSize=12;startSize=8;endSize=8;curved=1;" edge="1" parent="yebHsUK6jYcy_L9dXZWg-1" target="yebHsUK6jYcy_L9dXZWg-12">
          <mxGeometry width="50" height="50" relative="1" as="geometry">
            <mxPoint x="480.25" y="390" as="sourcePoint" />
            <mxPoint x="366" y="390" as="targetPoint" />
          </mxGeometry>
        </mxCell>
        <mxCell id="yebHsUK6jYcy_L9dXZWg-33" value="&lt;span style=&quot;font-size: 9px;&quot;&gt;返回保存成功&lt;/span&gt;" style="text;html=1;align=center;verticalAlign=middle;whiteSpace=wrap;rounded=0;" vertex="1" parent="yebHsUK6jYcy_L9dXZWg-1">
          <mxGeometry x="376" y="360" width="84" height="30" as="geometry" />
        </mxCell>
        <mxCell id="yebHsUK6jYcy_L9dXZWg-34" value="" style="endArrow=classic;html=1;rounded=0;fontSize=12;startSize=8;endSize=8;curved=1;" edge="1" parent="yebHsUK6jYcy_L9dXZWg-1" target="yebHsUK6jYcy_L9dXZWg-6">
          <mxGeometry width="50" height="50" relative="1" as="geometry">
            <mxPoint x="350.5" y="430" as="sourcePoint" />
            <mxPoint x="236" y="430" as="targetPoint" />
          </mxGeometry>
        </mxCell>
        <mxCell id="yebHsUK6jYcy_L9dXZWg-35" value="&lt;span style=&quot;font-size: 9px;&quot;&gt;更新活动审核状态&lt;/span&gt;" style="text;html=1;align=center;verticalAlign=middle;whiteSpace=wrap;rounded=0;" vertex="1" parent="yebHsUK6jYcy_L9dXZWg-1">
          <mxGeometry x="246" y="400" width="84" height="30" as="geometry" />
        </mxCell>
        <mxCell id="yebHsUK6jYcy_L9dXZWg-36" value="" style="endArrow=classic;html=1;rounded=0;fontSize=12;startSize=8;endSize=8;curved=1;" edge="1" parent="yebHsUK6jYcy_L9dXZWg-1">
          <mxGeometry width="50" height="50" relative="1" as="geometry">
            <mxPoint x="228.75" y="480" as="sourcePoint" />
            <mxPoint x="483.25" y="480" as="targetPoint" />
          </mxGeometry>
        </mxCell>
        <mxCell id="yebHsUK6jYcy_L9dXZWg-37" value="&lt;span style=&quot;font-size: 9px;&quot;&gt;更新活动状态&lt;/span&gt;" style="text;html=1;align=center;verticalAlign=middle;whiteSpace=wrap;rounded=0;" vertex="1" parent="yebHsUK6jYcy_L9dXZWg-1">
          <mxGeometry x="314" y="450" width="84" height="30" as="geometry" />
        </mxCell>
        <mxCell id="yebHsUK6jYcy_L9dXZWg-38" value="" style="endArrow=classic;html=1;rounded=0;fontSize=12;startSize=8;endSize=8;curved=1;" edge="1" parent="yebHsUK6jYcy_L9dXZWg-1">
          <mxGeometry width="50" height="50" relative="1" as="geometry">
            <mxPoint x="481" y="520" as="sourcePoint" />
            <mxPoint x="231" y="520" as="targetPoint" />
          </mxGeometry>
        </mxCell>
        <mxCell id="yebHsUK6jYcy_L9dXZWg-39" value="&lt;span style=&quot;font-size: 9px;&quot;&gt;返回更新成功&lt;/span&gt;" style="text;html=1;align=center;verticalAlign=middle;whiteSpace=wrap;rounded=0;" vertex="1" parent="yebHsUK6jYcy_L9dXZWg-1">
          <mxGeometry x="314" y="490" width="84" height="30" as="geometry" />
        </mxCell>
        <mxCell id="yebHsUK6jYcy_L9dXZWg-40" value="alt" style="shape=umlFrame;whiteSpace=wrap;html=1;pointerEvents=0;recursiveResize=0;container=1;collapsible=0;width=45;height=23;" vertex="1" parent="yebHsUK6jYcy_L9dXZWg-1">
          <mxGeometry x="198" y="560" width="440" height="253" as="geometry" />
        </mxCell>
        <mxCell id="yebHsUK6jYcy_L9dXZWg-41" value="[审核通过]" style="text;html=1;" vertex="1" parent="yebHsUK6jYcy_L9dXZWg-40">
          <mxGeometry width="100" height="20" relative="1" as="geometry">
            <mxPoint x="188" as="offset" />
          </mxGeometry>
        </mxCell>
        <mxCell id="yebHsUK6jYcy_L9dXZWg-42" value="" style="line;strokeWidth=1;dashed=1;labelPosition=center;verticalLabelPosition=bottom;align=left;verticalAlign=top;spacingLeft=20;spacingTop=15;html=1;whiteSpace=wrap;" vertex="1" parent="yebHsUK6jYcy_L9dXZWg-40">
          <mxGeometry y="150" width="440" height="10" as="geometry" />
        </mxCell>
        <mxCell id="yebHsUK6jYcy_L9dXZWg-43" value="[审核不通过]" style="text;html=1;" vertex="1" parent="yebHsUK6jYcy_L9dXZWg-40">
          <mxGeometry x="187.99999999999977" y="160" width="100" height="20" as="geometry" />
        </mxCell>
        <mxCell id="yebHsUK6jYcy_L9dXZWg-44" value="" style="endArrow=classic;html=1;rounded=0;fontSize=12;startSize=8;endSize=8;curved=1;" edge="1" parent="yebHsUK6jYcy_L9dXZWg-40">
          <mxGeometry width="50" height="50" relative="1" as="geometry">
            <mxPoint x="33" y="50" as="sourcePoint" />
            <mxPoint x="283" y="50" as="targetPoint" />
          </mxGeometry>
        </mxCell>
        <mxCell id="yebHsUK6jYcy_L9dXZWg-45" value="&lt;span style=&quot;font-size: 9px;&quot;&gt;设置活动状态为已发布&lt;/span&gt;" style="text;html=1;align=center;verticalAlign=middle;whiteSpace=wrap;rounded=0;" vertex="1" parent="yebHsUK6jYcy_L9dXZWg-40">
          <mxGeometry x="118" y="20" width="92" height="30" as="geometry" />
        </mxCell>
        <mxCell id="yebHsUK6jYcy_L9dXZWg-46" value="" style="endArrow=classic;html=1;rounded=0;fontSize=12;startSize=8;endSize=8;curved=1;" edge="1" parent="yebHsUK6jYcy_L9dXZWg-40">
          <mxGeometry width="50" height="50" relative="1" as="geometry">
            <mxPoint x="283" y="90" as="sourcePoint" />
            <mxPoint x="33" y="90" as="targetPoint" />
          </mxGeometry>
        </mxCell>
        <mxCell id="yebHsUK6jYcy_L9dXZWg-47" value="&lt;span style=&quot;font-size: 9px;&quot;&gt;返回更新成功&lt;/span&gt;" style="text;html=1;align=center;verticalAlign=middle;whiteSpace=wrap;rounded=0;" vertex="1" parent="yebHsUK6jYcy_L9dXZWg-40">
          <mxGeometry x="108" y="60" width="92" height="30" as="geometry" />
        </mxCell>
        <mxCell id="yebHsUK6jYcy_L9dXZWg-48" value="&lt;span style=&quot;font-size: 9px;&quot;&gt;通知活动审核通过&lt;/span&gt;" style="text;html=1;align=center;verticalAlign=middle;whiteSpace=wrap;rounded=0;" vertex="1" parent="yebHsUK6jYcy_L9dXZWg-40">
          <mxGeometry x="174" y="110" width="92" height="20" as="geometry" />
        </mxCell>
        <mxCell id="yebHsUK6jYcy_L9dXZWg-49" value="&lt;br&gt;&lt;span style=&quot;caret-color: rgba(0, 0, 0, 0); color: rgba(0, 0, 0, 0); font-family: monospace; font-size: 0px; text-align: start;&quot;&gt;3CmxGraphModel%3E%3Croot%3E%3CmxCell%20id%3D%220%22%2F%3E%3CmxCell%20id%3D%221%22%20parent%3D%220%22%2F%3E%3CmxCell%20id%3D%222%22%20value%3D%22%22%20style%3D%22html%3D1%3Bpoints%3D%5B%5B0%2C0%2C0%2C0%2C5%5D%2C%5B0%2C1%2C0%2C0%2C-5%5D%2C%5B1%2C0%2C0%2C0%2C5%5D%2C%5B1%2C1%2C0%2C0%2C-5%5D%5D%3Bperimeter%3DorthogonalPerimeter%3BoutlineConnect%3D0%3BtargetShapes%3DumlLifeline%3BportConstraint%3Deastwest%3BnewEdgeStyle%3D%7B%26quot%3Bcurved%26quot%3B%3A0%2C%26quot%3Brounded%26quot%3B%3A0%7D%3B%22%20vertex%3D%221%22%20parent%3D%221%22%3E%3CmxGeometry%20x%3D%22635%22%20y%3D%22690%22%20width%3D%2210%22%20height%3D%2236.5%22%20as%3D%22geometry%22%2F%3E%3C%2FmxCell%3E%3C%2Froot%3E%3C%2FmxGraphModel%3&lt;/span&gt;" style="html=1;points=[[0,0,0,0,5],[0,1,0,0,-5],[1,0,0,0,5],[1,1,0,0,-5]];perimeter=orthogonalPerimeter;outlineConnect=0;targetShapes=umlLifeline;portConstraint=eastwest;newEdgeStyle={&quot;curved&quot;:0,&quot;rounded&quot;:0};" vertex="1" parent="yebHsUK6jYcy_L9dXZWg-40">
          <mxGeometry x="413" y="110" width="10" height="36.5" as="geometry" />
        </mxCell>
        <mxCell id="yebHsUK6jYcy_L9dXZWg-50" style="edgeStyle=none;curved=0;rounded=0;orthogonalLoop=1;jettySize=auto;html=1;exitX=1;exitY=1;exitDx=0;exitDy=-5;exitPerimeter=0;fontSize=12;startSize=8;endSize=8;" edge="1" parent="yebHsUK6jYcy_L9dXZWg-40">
          <mxGeometry relative="1" as="geometry">
            <mxPoint x="33" y="130" as="sourcePoint" />
            <mxPoint x="413" y="130" as="targetPoint" />
          </mxGeometry>
        </mxCell>
        <mxCell id="yebHsUK6jYcy_L9dXZWg-51" value="&lt;br&gt;&lt;span style=&quot;caret-color: rgba(0, 0, 0, 0); color: rgba(0, 0, 0, 0); font-family: monospace; font-size: 0px; text-align: start;&quot;&gt;3CmxGraphModel%3E%3Croot%3E%3CmxCell%20id%3D%220%22%2F%3E%3CmxCell%20id%3D%221%22%20parent%3D%220%22%2F%3E%3CmxCell%20id%3D%222%22%20value%3D%22%22%20style%3D%22html%3D1%3Bpoints%3D%5B%5B0%2C0%2C0%2C0%2C5%5D%2C%5B0%2C1%2C0%2C0%2C-5%5D%2C%5B1%2C0%2C0%2C0%2C5%5D%2C%5B1%2C1%2C0%2C0%2C-5%5D%5D%3Bperimeter%3DorthogonalPerimeter%3BoutlineConnect%3D0%3BtargetShapes%3DumlLifeline%3BportConstraint%3Deastwest%3BnewEdgeStyle%3D%7B%26quot%3Bcurved%26quot%3B%3A0%2C%26quot%3Brounded%26quot%3B%3A0%7D%3B%22%20vertex%3D%221%22%20parent%3D%221%22%3E%3CmxGeometry%20x%3D%22635%22%20y%3D%22690%22%20width%3D%2210%22%20height%3D%2236.5%22%20as%3D%22geometry%22%2F%3E%3C%2FmxCell%3E%3C%2Froot%3E%3C%2FmxGraphModel%3&lt;/span&gt;" style="html=1;points=[[0,0,0,0,5],[0,1,0,0,-5],[1,0,0,0,5],[1,1,0,0,-5]];perimeter=orthogonalPerimeter;outlineConnect=0;targetShapes=umlLifeline;portConstraint=eastwest;newEdgeStyle={&quot;curved&quot;:0,&quot;rounded&quot;:0};" vertex="1" parent="yebHsUK6jYcy_L9dXZWg-40">
          <mxGeometry x="413" y="190" width="10" height="36.5" as="geometry" />
        </mxCell>
        <mxCell id="yebHsUK6jYcy_L9dXZWg-52" value="&lt;span style=&quot;font-size: 9px;&quot;&gt;通知活动审核不通过及原因&lt;/span&gt;" style="text;html=1;align=center;verticalAlign=middle;whiteSpace=wrap;rounded=0;" vertex="1" parent="yebHsUK6jYcy_L9dXZWg-40">
          <mxGeometry x="152" y="180" width="136" height="30" as="geometry" />
        </mxCell>
        <mxCell id="yebHsUK6jYcy_L9dXZWg-53" value="Activity" style="rounded=0;whiteSpace=wrap;html=1;" vertex="1" parent="yebHsUK6jYcy_L9dXZWg-1">
          <mxGeometry x="176" y="880" width="100" height="40" as="geometry" />
        </mxCell>
        <mxCell id="yebHsUK6jYcy_L9dXZWg-54" value="Review" style="rounded=0;whiteSpace=wrap;html=1;" vertex="1" parent="yebHsUK6jYcy_L9dXZWg-1">
          <mxGeometry x="306" y="880" width="100" height="40" as="geometry" />
        </mxCell>
        <mxCell id="yebHsUK6jYcy_L9dXZWg-55" value="Database" style="rounded=0;whiteSpace=wrap;html=1;" vertex="1" parent="yebHsUK6jYcy_L9dXZWg-1">
          <mxGeometry x="436" y="880" width="100" height="40" as="geometry" />
        </mxCell>
        <mxCell id="yebHsUK6jYcy_L9dXZWg-56" value="Organizer" style="rounded=0;whiteSpace=wrap;html=1;" vertex="1" parent="yebHsUK6jYcy_L9dXZWg-1">
          <mxGeometry x="566" y="880" width="100" height="40" as="geometry" />
        </mxCell>
        <mxCell id="yebHsUK6jYcy_L9dXZWg-57" value="Auditor" style="rounded=0;whiteSpace=wrap;html=1;" vertex="1" parent="yebHsUK6jYcy_L9dXZWg-1">
          <mxGeometry x="46" y="880" width="100" height="40" as="geometry" />
        </mxCell>
        <mxCell id="yebHsUK6jYcy_L9dXZWg-58" value="" style="endArrow=classic;html=1;rounded=0;fontSize=12;startSize=8;endSize=8;curved=1;" edge="1" parent="yebHsUK6jYcy_L9dXZWg-1" source="yebHsUK6jYcy_L9dXZWg-8" target="yebHsUK6jYcy_L9dXZWg-51">
          <mxGeometry width="50" height="50" relative="1" as="geometry">
            <mxPoint x="396" y="750" as="sourcePoint" />
            <mxPoint x="446" y="700" as="targetPoint" />
          </mxGeometry>
        </mxCell>
      </root>
    </mxGraphModel>
  </diagram>
</mxfile>
